<svg width="181" height="86" viewBox="0 0 181 86" fill="none" xmlns="http://www.w3.org/2000/svg">
<path d="M3.8252 70V60.7578H7.0625C8.18392 60.7578 9.03451 60.9736 9.61426 61.4053C10.194 61.8327 10.4839 62.4611 10.4839 63.2905C10.4839 63.7433 10.3675 64.1432 10.1348 64.4902C9.90202 64.833 9.57829 65.0848 9.16357 65.2456C9.63753 65.3641 10.0099 65.6032 10.2808 65.9629C10.5558 66.3226 10.6934 66.7627 10.6934 67.2832C10.6934 68.1719 10.4098 68.8447 9.84277 69.3018C9.27572 69.7588 8.46745 69.9915 7.41797 70H3.8252ZM5.72949 65.9756V68.4702H7.36084C7.80941 68.4702 8.15853 68.3644 8.4082 68.1528C8.66211 67.937 8.78906 67.6408 8.78906 67.2642C8.78906 66.4178 8.35107 65.9883 7.4751 65.9756H5.72949ZM5.72949 64.6299H7.13867C8.09928 64.613 8.57959 64.23 8.57959 63.481C8.57959 63.062 8.45687 62.7616 8.21143 62.5796C7.97021 62.3934 7.58724 62.3003 7.0625 62.3003H5.72949V64.6299ZM15.9873 70C15.9027 69.835 15.8413 69.6297 15.8032 69.3843C15.3589 69.8794 14.7812 70.127 14.0703 70.127C13.3975 70.127 12.8389 69.9323 12.3945 69.543C11.9544 69.1536 11.7344 68.6628 11.7344 68.0703C11.7344 67.3424 12.0031 66.7839 12.5405 66.3945C13.0822 66.0052 13.863 65.8084 14.8828 65.8042H15.7271V65.4106C15.7271 65.0933 15.6445 64.8394 15.4795 64.6489C15.3187 64.4585 15.0627 64.3633 14.7114 64.3633C14.4025 64.3633 14.1592 64.4373 13.9814 64.5854C13.8079 64.7336 13.7212 64.9367 13.7212 65.1948H11.8867C11.8867 64.797 12.0094 64.4289 12.2549 64.0903C12.5003 63.7518 12.8473 63.4873 13.2959 63.2969C13.7445 63.1022 14.248 63.0049 14.8066 63.0049C15.653 63.0049 16.3237 63.2186 16.8188 63.646C17.3182 64.0692 17.5679 64.6659 17.5679 65.436V68.4131C17.5721 69.0648 17.6631 69.5578 17.8408 69.8921V70H15.9873ZM14.4702 68.7241C14.741 68.7241 14.9907 68.6649 15.2192 68.5464C15.4478 68.4237 15.617 68.2607 15.7271 68.0576V66.877H15.0415C14.1232 66.877 13.6344 67.1943 13.5752 67.8291L13.5688 67.937C13.5688 68.1655 13.6493 68.3538 13.8101 68.502C13.9709 68.6501 14.1909 68.7241 14.4702 68.7241ZM18.6914 66.5151C18.6914 65.4445 18.9305 64.5918 19.4087 63.957C19.8911 63.3223 20.5492 63.0049 21.3828 63.0049C22.0514 63.0049 22.6037 63.2546 23.0396 63.7539V60.25H24.8804V70H23.2236L23.1348 69.27C22.6777 69.8413 22.0895 70.127 21.3701 70.127C20.5618 70.127 19.9123 69.8096 19.4214 69.1748C18.9347 68.5358 18.6914 67.6493 18.6914 66.5151ZM20.5259 66.6484C20.5259 67.2917 20.638 67.7847 20.8623 68.1274C21.0866 68.4702 21.4124 68.6416 21.8398 68.6416C22.4069 68.6416 22.8068 68.4025 23.0396 67.9243V65.2139C22.811 64.7357 22.4154 64.4966 21.8525 64.4966C20.9681 64.4966 20.5259 65.2139 20.5259 66.6484ZM30.2822 70C30.1976 69.835 30.1362 69.6297 30.0981 69.3843C29.6538 69.8794 29.0762 70.127 28.3652 70.127C27.6924 70.127 27.1338 69.9323 26.6895 69.543C26.2493 69.1536 26.0293 68.6628 26.0293 68.0703C26.0293 67.3424 26.298 66.7839 26.8354 66.3945C27.3771 66.0052 28.1579 65.8084 29.1777 65.8042H30.022V65.4106C30.022 65.0933 29.9395 64.8394 29.7744 64.6489C29.6136 64.4585 29.3576 64.3633 29.0063 64.3633C28.6974 64.3633 28.4541 64.4373 28.2764 64.5854C28.1029 64.7336 28.0161 64.9367 28.0161 65.1948H26.1816C26.1816 64.797 26.3044 64.4289 26.5498 64.0903C26.7952 63.7518 27.1423 63.4873 27.5908 63.2969C28.0394 63.1022 28.543 63.0049 29.1016 63.0049C29.9479 63.0049 30.6187 63.2186 31.1138 63.646C31.6131 64.0692 31.8628 64.6659 31.8628 65.436V68.4131C31.867 69.0648 31.958 69.5578 32.1357 69.8921V70H30.2822ZM28.7651 68.7241C29.036 68.7241 29.2856 68.6649 29.5142 68.5464C29.7427 68.4237 29.9119 68.2607 30.022 68.0576V66.877H29.3364C28.4181 66.877 27.9294 67.1943 27.8701 67.8291L27.8638 67.937C27.8638 68.1655 27.9442 68.3538 28.105 68.502C28.2658 68.6501 28.4858 68.7241 28.7651 68.7241ZM34.9604 63.1318L35.0176 63.9253C35.5085 63.3117 36.1665 63.0049 36.9917 63.0049C37.7196 63.0049 38.2612 63.2186 38.6167 63.646C38.9722 64.0734 39.1541 64.7124 39.1626 65.563V70H37.3281V65.6074C37.3281 65.2181 37.2435 64.9367 37.0742 64.7632C36.9049 64.5854 36.6235 64.4966 36.23 64.4966C35.7137 64.4966 35.3265 64.7166 35.0684 65.1567V70H33.2339V63.1318H34.9604ZM45.8213 66.7437V70H43.917V60.7578H47.5225C48.2165 60.7578 48.8258 60.8848 49.3506 61.1387C49.8796 61.3926 50.2858 61.7544 50.5693 62.2241C50.8529 62.6896 50.9946 63.2207 50.9946 63.8174C50.9946 64.723 50.6836 65.4382 50.0615 65.9629C49.4437 66.4834 48.5868 66.7437 47.4907 66.7437H45.8213ZM45.8213 65.2012H47.5225C48.026 65.2012 48.409 65.0827 48.6714 64.8457C48.938 64.6087 49.0713 64.2702 49.0713 63.8301C49.0713 63.3773 48.938 63.0112 48.6714 62.7319C48.4048 62.4526 48.0366 62.3088 47.5669 62.3003H45.8213V65.2012ZM55.2603 70.127C54.2531 70.127 53.4321 69.818 52.7974 69.2002C52.1668 68.5824 51.8516 67.7593 51.8516 66.731V66.5532C51.8516 65.8634 51.9849 65.2477 52.2515 64.7061C52.5181 64.1602 52.8947 63.7412 53.3813 63.4492C53.8722 63.153 54.4308 63.0049 55.0571 63.0049C55.9966 63.0049 56.735 63.3011 57.2725 63.8936C57.8141 64.486 58.085 65.326 58.085 66.4136V67.1626H53.7114C53.7707 67.6112 53.9484 67.9709 54.2446 68.2417C54.5451 68.5125 54.9238 68.6479 55.3809 68.6479C56.0876 68.6479 56.6398 68.3919 57.0376 67.8799L57.939 68.8892C57.6639 69.2785 57.2915 69.5832 56.8218 69.8032C56.3521 70.019 55.8315 70.127 55.2603 70.127ZM55.0508 64.4902C54.6868 64.4902 54.3906 64.613 54.1621 64.8584C53.9378 65.1038 53.7939 65.4551 53.7305 65.9121H56.2822V65.7661C56.2738 65.3599 56.1637 65.0467 55.9521 64.8267C55.7406 64.6024 55.4401 64.4902 55.0508 64.4902ZM60.8208 63.1318L60.8779 63.9253C61.3688 63.3117 62.0269 63.0049 62.8521 63.0049C63.5799 63.0049 64.1216 63.2186 64.4771 63.646C64.8325 64.0734 65.0145 64.7124 65.0229 65.563V70H63.1885V65.6074C63.1885 65.2181 63.1038 64.9367 62.9346 64.7632C62.7653 64.5854 62.4839 64.4966 62.0903 64.4966C61.5741 64.4966 61.1868 64.7166 60.9287 65.1567V70H59.0942V63.1318H60.8208ZM66.1528 66.5151C66.1528 65.4614 66.4025 64.613 66.9019 63.9697C67.4054 63.3265 68.0825 63.0049 68.9331 63.0049C69.6864 63.0049 70.2725 63.263 70.6914 63.7793L70.7676 63.1318H72.4307V69.7715C72.4307 70.3724 72.2931 70.895 72.0181 71.3394C71.7472 71.7837 71.3643 72.1222 70.8691 72.355C70.374 72.5877 69.7943 72.7041 69.1299 72.7041C68.6263 72.7041 68.1354 72.6025 67.6572 72.3994C67.179 72.2005 66.8172 71.9424 66.5718 71.625L67.3843 70.5078C67.8413 71.0199 68.3957 71.2759 69.0474 71.2759C69.534 71.2759 69.9128 71.1447 70.1836 70.8823C70.4544 70.6242 70.5898 70.256 70.5898 69.7778V69.4097C70.1667 69.8879 69.6102 70.127 68.9204 70.127C68.0952 70.127 67.4266 69.8053 66.9146 69.1621C66.4067 68.5146 66.1528 67.6577 66.1528 66.5913V66.5151ZM67.9873 66.6484C67.9873 67.2705 68.1121 67.7593 68.3618 68.1147C68.6115 68.466 68.9543 68.6416 69.3901 68.6416C69.9487 68.6416 70.3486 68.4321 70.5898 68.0132V65.125C70.3444 64.7061 69.9487 64.4966 69.4028 64.4966C68.9627 64.4966 68.6157 64.6764 68.3618 65.0361C68.1121 65.3958 67.9873 65.9333 67.9873 66.6484ZM77.0073 70.127C76.0002 70.127 75.1792 69.818 74.5444 69.2002C73.9139 68.5824 73.5986 67.7593 73.5986 66.731V66.5532C73.5986 65.8634 73.7319 65.2477 73.9985 64.7061C74.2651 64.1602 74.6418 63.7412 75.1284 63.4492C75.6193 63.153 76.1779 63.0049 76.8042 63.0049C77.7437 63.0049 78.4821 63.3011 79.0195 63.8936C79.5612 64.486 79.832 65.326 79.832 66.4136V67.1626H75.4585C75.5177 67.6112 75.6955 67.9709 75.9917 68.2417C76.2922 68.5125 76.6709 68.6479 77.1279 68.6479C77.8346 68.6479 78.3869 68.3919 78.7847 67.8799L79.686 68.8892C79.411 69.2785 79.0386 69.5832 78.5688 69.8032C78.0991 70.019 77.5786 70.127 77.0073 70.127ZM76.7979 64.4902C76.4339 64.4902 76.1377 64.613 75.9092 64.8584C75.6849 65.1038 75.541 65.4551 75.4775 65.9121H78.0293V65.7661C78.0208 65.3599 77.9108 65.0467 77.6992 64.8267C77.4876 64.6024 77.1872 64.4902 76.7979 64.4902ZM82.8154 70H80.9746V60.25H82.8154V70ZM84.0469 66.5024C84.0469 65.8211 84.1781 65.2139 84.4404 64.6807C84.7028 64.1475 85.0794 63.7349 85.5703 63.4429C86.0654 63.1509 86.6388 63.0049 87.2905 63.0049C88.2173 63.0049 88.9727 63.2884 89.5566 63.8555C90.1449 64.4225 90.4728 65.1927 90.5405 66.166L90.5532 66.6357C90.5532 67.6895 90.2591 68.5358 89.6709 69.1748C89.0827 69.8096 88.2935 70.127 87.3032 70.127C86.313 70.127 85.5216 69.8096 84.9292 69.1748C84.341 68.54 84.0469 67.6768 84.0469 66.585V66.5024ZM85.8813 66.6357C85.8813 67.2874 86.0041 67.7868 86.2495 68.1338C86.495 68.4766 86.8462 68.6479 87.3032 68.6479C87.7476 68.6479 88.0946 68.4787 88.3442 68.1401C88.5939 67.7974 88.7188 67.2515 88.7188 66.5024C88.7188 65.8634 88.5939 65.3683 88.3442 65.0171C88.0946 64.6659 87.7433 64.4902 87.2905 64.4902C86.842 64.4902 86.495 64.6659 86.2495 65.0171C86.0041 65.3641 85.8813 65.9036 85.8813 66.6357ZM93.6191 70H91.7783V60.25H93.6191V70ZM99.1162 70C99.0316 69.835 98.9702 69.6297 98.9321 69.3843C98.4878 69.8794 97.9102 70.127 97.1992 70.127C96.5264 70.127 95.9678 69.9323 95.5234 69.543C95.0833 69.1536 94.8633 68.6628 94.8633 68.0703C94.8633 67.3424 95.132 66.7839 95.6694 66.3945C96.2111 66.0052 96.9919 65.8084 98.0117 65.8042H98.856V65.4106C98.856 65.0933 98.7734 64.8394 98.6084 64.6489C98.4476 64.4585 98.1916 64.3633 97.8403 64.3633C97.5314 64.3633 97.2881 64.4373 97.1104 64.5854C96.9368 64.7336 96.8501 64.9367 96.8501 65.1948H95.0156C95.0156 64.797 95.1383 64.4289 95.3838 64.0903C95.6292 63.7518 95.9762 63.4873 96.4248 63.2969C96.8734 63.1022 97.377 63.0049 97.9355 63.0049C98.7819 63.0049 99.4526 63.2186 99.9478 63.646C100.447 64.0692 100.697 64.6659 100.697 65.436V68.4131C100.701 69.0648 100.792 69.5578 100.97 69.8921V70H99.1162ZM97.5991 68.7241C97.87 68.7241 98.1196 68.6649 98.3481 68.5464C98.5767 68.4237 98.7459 68.2607 98.856 68.0576V66.877H98.1704C97.2521 66.877 96.7633 67.1943 96.7041 67.8291L96.6978 67.937C96.6978 68.1655 96.7782 68.3538 96.939 68.502C97.0998 68.6501 97.3198 68.7241 97.5991 68.7241ZM105.464 70V60.7578H108.701C109.823 60.7578 110.673 60.9736 111.253 61.4053C111.833 61.8327 112.123 62.4611 112.123 63.2905C112.123 63.7433 112.006 64.1432 111.773 64.4902C111.541 64.833 111.217 65.0848 110.802 65.2456C111.276 65.3641 111.649 65.6032 111.919 65.9629C112.194 66.3226 112.332 66.7627 112.332 67.2832C112.332 68.1719 112.049 68.8447 111.481 69.3018C110.914 69.7588 110.106 69.9915 109.057 70H105.464ZM107.368 65.9756V68.4702H109C109.448 68.4702 109.797 68.3644 110.047 68.1528C110.301 67.937 110.428 67.6408 110.428 67.2642C110.428 66.4178 109.99 65.9883 109.114 65.9756H107.368ZM107.368 64.6299H108.777C109.738 64.613 110.218 64.23 110.218 63.481C110.218 63.062 110.096 62.7616 109.85 62.5796C109.609 62.3934 109.226 62.3003 108.701 62.3003H107.368V64.6299ZM116.807 70.127C115.8 70.127 114.979 69.818 114.344 69.2002C113.714 68.5824 113.398 67.7593 113.398 66.731V66.5532C113.398 65.8634 113.532 65.2477 113.798 64.7061C114.065 64.1602 114.442 63.7412 114.928 63.4492C115.419 63.153 115.978 63.0049 116.604 63.0049C117.543 63.0049 118.282 63.3011 118.819 63.8936C119.361 64.486 119.632 65.326 119.632 66.4136V67.1626H115.258C115.318 67.6112 115.495 67.9709 115.792 68.2417C116.092 68.5125 116.471 68.6479 116.928 68.6479C117.634 68.6479 118.187 68.3919 118.584 67.8799L119.486 68.8892C119.211 69.2785 118.838 69.5832 118.369 69.8032C117.899 70.019 117.378 70.127 116.807 70.127ZM116.598 64.4902C116.234 64.4902 115.938 64.613 115.709 64.8584C115.485 65.1038 115.341 65.4551 115.277 65.9121H117.829V65.7661C117.821 65.3599 117.711 65.0467 117.499 64.8267C117.287 64.6024 116.987 64.4902 116.598 64.4902ZM124.659 70C124.575 69.835 124.513 69.6297 124.475 69.3843C124.031 69.8794 123.453 70.127 122.742 70.127C122.069 70.127 121.511 69.9323 121.066 69.543C120.626 69.1536 120.406 68.6628 120.406 68.0703C120.406 67.3424 120.675 66.7839 121.212 66.3945C121.754 66.0052 122.535 65.8084 123.555 65.8042H124.399V65.4106C124.399 65.0933 124.316 64.8394 124.151 64.6489C123.991 64.4585 123.735 64.3633 123.383 64.3633C123.074 64.3633 122.831 64.4373 122.653 64.5854C122.48 64.7336 122.393 64.9367 122.393 65.1948H120.559C120.559 64.797 120.681 64.4289 120.927 64.0903C121.172 63.7518 121.519 63.4873 121.968 63.2969C122.416 63.1022 122.92 63.0049 123.479 63.0049C124.325 63.0049 124.996 63.2186 125.491 63.646C125.99 64.0692 126.24 64.6659 126.24 65.436V68.4131C126.244 69.0648 126.335 69.5578 126.513 69.8921V70H124.659ZM123.142 68.7241C123.413 68.7241 123.663 68.6649 123.891 68.5464C124.12 68.4237 124.289 68.2607 124.399 68.0576V66.877H123.713C122.795 66.877 122.306 67.1943 122.247 67.8291L122.241 67.937C122.241 68.1655 122.321 68.3538 122.482 68.502C122.643 68.6501 122.863 68.7241 123.142 68.7241ZM131.369 68.1021C131.369 67.8778 131.257 67.7021 131.032 67.5752C130.812 67.444 130.457 67.3276 129.966 67.2261C128.332 66.8833 127.516 66.1893 127.516 65.144C127.516 64.5347 127.767 64.0269 128.271 63.6206C128.779 63.2101 129.441 63.0049 130.258 63.0049C131.13 63.0049 131.826 63.2101 132.346 63.6206C132.871 64.0311 133.133 64.5643 133.133 65.2202H131.299C131.299 64.9578 131.214 64.742 131.045 64.5728C130.876 64.3993 130.611 64.3125 130.251 64.3125C129.943 64.3125 129.703 64.3823 129.534 64.522C129.365 64.6616 129.28 64.8394 129.28 65.0552C129.28 65.2583 129.375 65.4233 129.566 65.5503C129.761 65.673 130.086 65.7809 130.543 65.874C131 65.9629 131.386 66.0645 131.699 66.1787C132.668 66.5342 133.152 67.1499 133.152 68.0259C133.152 68.6522 132.884 69.16 132.346 69.5493C131.809 69.9344 131.115 70.127 130.264 70.127C129.689 70.127 129.177 70.0254 128.728 69.8223C128.284 69.6149 127.935 69.3335 127.681 68.978C127.427 68.6183 127.3 68.2311 127.3 67.8164H129.039C129.056 68.1423 129.177 68.3919 129.401 68.5654C129.625 68.7389 129.926 68.8257 130.302 68.8257C130.653 68.8257 130.918 68.7601 131.096 68.6289C131.278 68.4935 131.369 68.3179 131.369 68.1021ZM136.275 70H134.435V63.1318H136.275V70ZM134.327 61.3545C134.327 61.0794 134.418 60.853 134.6 60.6753C134.786 60.4976 135.038 60.4087 135.355 60.4087C135.668 60.4087 135.918 60.4976 136.104 60.6753C136.29 60.853 136.383 61.0794 136.383 61.3545C136.383 61.6338 136.288 61.8623 136.098 62.04C135.911 62.2178 135.664 62.3066 135.355 62.3066C135.046 62.3066 134.796 62.2178 134.606 62.04C134.42 61.8623 134.327 61.6338 134.327 61.3545ZM141.512 68.1021C141.512 67.8778 141.4 67.7021 141.176 67.5752C140.956 67.444 140.6 67.3276 140.109 67.2261C138.476 66.8833 137.659 66.1893 137.659 65.144C137.659 64.5347 137.911 64.0269 138.415 63.6206C138.922 63.2101 139.585 63.0049 140.401 63.0049C141.273 63.0049 141.969 63.2101 142.49 63.6206C143.014 64.0311 143.277 64.5643 143.277 65.2202H141.442C141.442 64.9578 141.358 64.742 141.188 64.5728C141.019 64.3993 140.755 64.3125 140.395 64.3125C140.086 64.3125 139.847 64.3823 139.678 64.522C139.508 64.6616 139.424 64.8394 139.424 65.0552C139.424 65.2583 139.519 65.4233 139.709 65.5503C139.904 65.673 140.23 65.7809 140.687 65.874C141.144 65.9629 141.529 66.0645 141.842 66.1787C142.811 66.5342 143.296 67.1499 143.296 68.0259C143.296 68.6522 143.027 69.16 142.49 69.5493C141.952 69.9344 141.258 70.127 140.408 70.127C139.832 70.127 139.32 70.0254 138.872 69.8223C138.427 69.6149 138.078 69.3335 137.824 68.978C137.57 68.6183 137.443 68.2311 137.443 67.8164H139.183C139.2 68.1423 139.32 68.3919 139.544 68.5654C139.769 68.7389 140.069 68.8257 140.446 68.8257C140.797 68.8257 141.062 68.7601 141.239 68.6289C141.421 68.4935 141.512 68.3179 141.512 68.1021ZM150.456 67.5054L151.357 63.1318H153.128L151.376 70H149.84L148.539 65.6772L147.238 70H145.708L143.956 63.1318H145.727L146.622 67.499L147.879 63.1318H149.206L150.456 67.5054ZM158.022 70C157.938 69.835 157.876 69.6297 157.838 69.3843C157.394 69.8794 156.816 70.127 156.105 70.127C155.433 70.127 154.874 69.9323 154.43 69.543C153.99 69.1536 153.77 68.6628 153.77 68.0703C153.77 67.3424 154.038 66.7839 154.576 66.3945C155.117 66.0052 155.898 65.8084 156.918 65.8042H157.762V65.4106C157.762 65.0933 157.68 64.8394 157.515 64.6489C157.354 64.4585 157.098 64.3633 156.747 64.3633C156.438 64.3633 156.194 64.4373 156.017 64.5854C155.843 64.7336 155.756 64.9367 155.756 65.1948H153.922C153.922 64.797 154.045 64.4289 154.29 64.0903C154.535 63.7518 154.882 63.4873 155.331 63.2969C155.78 63.1022 156.283 63.0049 156.842 63.0049C157.688 63.0049 158.359 63.2186 158.854 63.646C159.353 64.0692 159.603 64.6659 159.603 65.436V68.4131C159.607 69.0648 159.698 69.5578 159.876 69.8921V70H158.022ZM156.505 68.7241C156.776 68.7241 157.026 68.6649 157.254 68.5464C157.483 68.4237 157.652 68.2607 157.762 68.0576V66.877H157.077C156.158 66.877 155.67 67.1943 155.61 67.8291L155.604 67.937C155.604 68.1655 155.684 68.3538 155.845 68.502C156.006 68.6501 156.226 68.7241 156.505 68.7241ZM6.71973 81.293L5.72949 82.3594V85H3.8252V75.7578H5.72949V79.9473L6.56738 78.7983L8.92236 75.7578H11.2646L7.98291 79.8647L11.3599 85H9.09375L6.71973 81.293ZM15.9365 85C15.8519 84.835 15.7905 84.6297 15.7524 84.3843C15.3081 84.8794 14.7305 85.127 14.0195 85.127C13.3467 85.127 12.7881 84.9323 12.3438 84.543C11.9036 84.1536 11.6836 83.6628 11.6836 83.0703C11.6836 82.3424 11.9523 81.7839 12.4897 81.3945C13.0314 81.0052 13.8122 80.8084 14.832 80.8042H15.6763V80.4106C15.6763 80.0933 15.5938 79.8394 15.4287 79.6489C15.2679 79.4585 15.0119 79.3633 14.6606 79.3633C14.3517 79.3633 14.1084 79.4373 13.9307 79.5854C13.7572 79.7336 13.6704 79.9367 13.6704 80.1948H11.8359C11.8359 79.797 11.9587 79.4289 12.2041 79.0903C12.4495 78.7518 12.7965 78.4873 13.2451 78.2969C13.6937 78.1022 14.1973 78.0049 14.7559 78.0049C15.6022 78.0049 16.2729 78.2186 16.7681 78.646C17.2674 79.0692 17.5171 79.6659 17.5171 80.436V83.4131C17.5213 84.0648 17.6123 84.5578 17.79 84.8921V85H15.9365ZM14.4194 83.7241C14.6903 83.7241 14.9399 83.6649 15.1685 83.5464C15.397 83.4237 15.5662 83.2607 15.6763 83.0576V81.877H14.9907C14.0724 81.877 13.5837 82.1943 13.5244 82.8291L13.5181 82.937C13.5181 83.1655 13.5985 83.3538 13.7593 83.502C13.9201 83.6501 14.1401 83.7241 14.4194 83.7241ZM20.8623 85H19.0215V75.25H20.8623V85ZM24.3154 85H22.4746V78.1318H24.3154V85ZM22.3667 76.3545C22.3667 76.0794 22.4577 75.853 22.6396 75.6753C22.8258 75.4976 23.0776 75.4087 23.395 75.4087C23.7082 75.4087 23.9578 75.4976 24.144 75.6753C24.3302 75.853 24.4233 76.0794 24.4233 76.3545C24.4233 76.6338 24.3281 76.8623 24.1377 77.04C23.9515 77.2178 23.7039 77.3066 23.395 77.3066C23.0861 77.3066 22.8364 77.2178 22.646 77.04C22.4598 76.8623 22.3667 76.6338 22.3667 76.3545ZM27.5527 78.1318L27.6099 78.8999C28.0965 78.3032 28.7546 78.0049 29.584 78.0049C30.4684 78.0049 31.0757 78.354 31.4058 79.0522C31.8882 78.354 32.5758 78.0049 33.4688 78.0049C34.2135 78.0049 34.7679 78.2228 35.1318 78.6587C35.4958 79.0903 35.6777 79.742 35.6777 80.6138V85H33.8369V80.6201C33.8369 80.2308 33.7607 79.9473 33.6084 79.7695C33.4561 79.5876 33.1873 79.4966 32.8022 79.4966C32.2521 79.4966 31.8713 79.759 31.6597 80.2837L31.666 85H29.8315V80.6265C29.8315 80.2287 29.7533 79.9409 29.5967 79.7632C29.4401 79.5854 29.1735 79.4966 28.7969 79.4966C28.2764 79.4966 27.8997 79.7124 27.667 80.144V85H25.8325V78.1318H27.5527ZM41.0732 85C40.9886 84.835 40.9272 84.6297 40.8892 84.3843C40.4448 84.8794 39.8672 85.127 39.1562 85.127C38.4834 85.127 37.9248 84.9323 37.4805 84.543C37.0404 84.1536 36.8203 83.6628 36.8203 83.0703C36.8203 82.3424 37.089 81.7839 37.6265 81.3945C38.1681 81.0052 38.9489 80.8084 39.9688 80.8042H40.813V80.4106C40.813 80.0933 40.7305 79.8394 40.5654 79.6489C40.4046 79.4585 40.1486 79.3633 39.7974 79.3633C39.4884 79.3633 39.2451 79.4373 39.0674 79.5854C38.8939 79.7336 38.8071 79.9367 38.8071 80.1948H36.9727C36.9727 79.797 37.0954 79.4289 37.3408 79.0903C37.5863 78.7518 37.9333 78.4873 38.3818 78.2969C38.8304 78.1022 39.334 78.0049 39.8926 78.0049C40.7389 78.0049 41.4097 78.2186 41.9048 78.646C42.4041 79.0692 42.6538 79.6659 42.6538 80.436V83.4131C42.658 84.0648 42.749 84.5578 42.9268 84.8921V85H41.0732ZM39.5562 83.7241C39.827 83.7241 40.0767 83.6649 40.3052 83.5464C40.5337 83.4237 40.703 83.2607 40.813 83.0576V81.877H40.1274C39.2091 81.877 38.7204 82.1943 38.6611 82.8291L38.6548 82.937C38.6548 83.1655 38.7352 83.3538 38.896 83.502C39.0568 83.6501 39.2769 83.7241 39.5562 83.7241ZM45.7515 78.1318L45.8086 78.9253C46.2995 78.3117 46.9575 78.0049 47.7827 78.0049C48.5106 78.0049 49.0522 78.2186 49.4077 78.646C49.7632 79.0734 49.9451 79.7124 49.9536 80.563V85H48.1191V80.6074C48.1191 80.2181 48.0345 79.9367 47.8652 79.7632C47.696 79.5854 47.4146 79.4966 47.021 79.4966C46.5047 79.4966 46.1175 79.7166 45.8594 80.1567V85H44.0249V78.1318H45.7515ZM53.5464 76.4434V78.1318H54.7207V79.4775H53.5464V82.9053C53.5464 83.1592 53.5951 83.3411 53.6924 83.4512C53.7897 83.5612 53.9759 83.6162 54.251 83.6162C54.4541 83.6162 54.634 83.6014 54.7905 83.5718V84.9619C54.4308 85.0719 54.0605 85.127 53.6797 85.127C52.3932 85.127 51.7373 84.4774 51.7119 83.1782V79.4775H50.709V78.1318H51.7119V76.4434H53.5464ZM59.7227 85C59.638 84.835 59.5767 84.6297 59.5386 84.3843C59.0942 84.8794 58.5166 85.127 57.8057 85.127C57.1328 85.127 56.5742 84.9323 56.1299 84.543C55.6898 84.1536 55.4697 83.6628 55.4697 83.0703C55.4697 82.3424 55.7384 81.7839 56.2759 81.3945C56.8175 81.0052 57.5983 80.8084 58.6182 80.8042H59.4624V80.4106C59.4624 80.0933 59.3799 79.8394 59.2148 79.6489C59.054 79.4585 58.798 79.3633 58.4468 79.3633C58.1379 79.3633 57.8945 79.4373 57.7168 79.5854C57.5433 79.7336 57.4565 79.9367 57.4565 80.1948H55.6221C55.6221 79.797 55.7448 79.4289 55.9902 79.0903C56.2357 78.7518 56.5827 78.4873 57.0312 78.2969C57.4798 78.1022 57.9834 78.0049 58.542 78.0049C59.3883 78.0049 60.0591 78.2186 60.5542 78.646C61.0535 79.0692 61.3032 79.6659 61.3032 80.436V83.4131C61.3075 84.0648 61.3984 84.5578 61.5762 84.8921V85H59.7227ZM58.2056 83.7241C58.4764 83.7241 58.7261 83.6649 58.9546 83.5464C59.1831 83.4237 59.3524 83.2607 59.4624 83.0576V81.877H58.7769C57.8586 81.877 57.3698 82.1943 57.3105 82.8291L57.3042 82.937C57.3042 83.1655 57.3846 83.3538 57.5454 83.502C57.7062 83.6501 57.9263 83.7241 58.2056 83.7241ZM64.4009 78.1318L64.458 78.9253C64.9489 78.3117 65.6069 78.0049 66.4321 78.0049C67.16 78.0049 67.7017 78.2186 68.0571 78.646C68.4126 79.0734 68.5946 79.7124 68.603 80.563V85H66.7686V80.6074C66.7686 80.2181 66.6839 79.9367 66.5146 79.7632C66.3454 79.5854 66.064 79.4966 65.6704 79.4966C65.1541 79.4966 64.7669 79.7166 64.5088 80.1567V85H62.6743V78.1318H64.4009ZM79.9336 77.3003H77.1025V85H75.1982V77.3003H72.4053V75.7578H79.9336V77.3003ZM82.8408 85H81V78.1318H82.8408V85ZM80.8921 76.3545C80.8921 76.0794 80.9831 75.853 81.165 75.6753C81.3512 75.4976 81.603 75.4087 81.9204 75.4087C82.2336 75.4087 82.4832 75.4976 82.6694 75.6753C82.8556 75.853 82.9487 76.0794 82.9487 76.3545C82.9487 76.6338 82.8535 76.8623 82.6631 77.04C82.4769 77.2178 82.2293 77.3066 81.9204 77.3066C81.6115 77.3066 81.3618 77.2178 81.1714 77.04C80.9852 76.8623 80.8921 76.6338 80.8921 76.3545ZM86.0781 78.1318L86.1353 78.8999C86.6219 78.3032 87.2799 78.0049 88.1094 78.0049C88.9938 78.0049 89.6011 78.354 89.9312 79.0522C90.4136 78.354 91.1012 78.0049 91.9941 78.0049C92.7389 78.0049 93.2933 78.2228 93.6572 78.6587C94.0212 79.0903 94.2031 79.742 94.2031 80.6138V85H92.3623V80.6201C92.3623 80.2308 92.2861 79.9473 92.1338 79.7695C91.9814 79.5876 91.7127 79.4966 91.3276 79.4966C90.7775 79.4966 90.3966 79.759 90.1851 80.2837L90.1914 85H88.3569V80.6265C88.3569 80.2287 88.2786 79.9409 88.1221 79.7632C87.9655 79.5854 87.6989 79.4966 87.3223 79.4966C86.8018 79.4966 86.4251 79.7124 86.1924 80.144V85H84.3579V78.1318H86.0781ZM99.7319 84.3018C99.2791 84.8519 98.6528 85.127 97.853 85.127C97.1167 85.127 96.5539 84.9154 96.1646 84.4922C95.7795 84.069 95.5827 83.4491 95.5742 82.6323V78.1318H97.4087V82.5688C97.4087 83.284 97.7345 83.6416 98.3862 83.6416C99.0083 83.6416 99.4357 83.4258 99.6685 82.9941V78.1318H101.509V85H99.7827L99.7319 84.3018ZM106.752 79.8521C106.503 79.8182 106.283 79.8013 106.092 79.8013C105.398 79.8013 104.943 80.0361 104.728 80.5059V85H102.893V78.1318H104.626L104.677 78.9507C105.045 78.3201 105.555 78.0049 106.207 78.0049C106.41 78.0049 106.6 78.0324 106.778 78.0874L106.752 79.8521Z" fill="#0C3A64"/>
<path d="M3.42773 49V10.6094H16.875C21.5332 10.6094 25.0664 11.5059 27.4746 13.2988C29.8828 15.0742 31.0869 17.6846 31.0869 21.1299C31.0869 23.0107 30.6035 24.6719 29.6367 26.1133C28.6699 27.5371 27.3252 28.583 25.6025 29.251C27.5713 29.7432 29.1182 30.7363 30.2432 32.2305C31.3857 33.7246 31.957 35.5527 31.957 37.7148C31.957 41.4062 30.7793 44.2012 28.4238 46.0996C26.0684 47.998 22.7109 48.9648 18.3516 49H3.42773ZM11.3379 32.2832V42.6455H18.1143C19.9775 42.6455 21.4277 42.2061 22.4648 41.3271C23.5195 40.4307 24.0469 39.2002 24.0469 37.6357C24.0469 34.1201 22.2275 32.3359 18.5889 32.2832H11.3379ZM11.3379 26.6934H17.1914C21.1816 26.623 23.1768 25.0322 23.1768 21.9209C23.1768 20.1807 22.667 18.9326 21.6475 18.1768C20.6455 17.4033 19.0547 17.0166 16.875 17.0166H11.3379V26.6934ZM45.8262 35.4736V49H37.916V10.6094H52.8926C55.7754 10.6094 58.3066 11.1367 60.4863 12.1914C62.6836 13.2461 64.3711 14.749 65.5488 16.7002C66.7266 18.6338 67.3154 20.8398 67.3154 23.3184C67.3154 27.0801 66.0234 30.0508 63.4395 32.2305C60.873 34.3926 57.3135 35.4736 52.7607 35.4736H45.8262ZM45.8262 29.0664H52.8926C54.9844 29.0664 56.5752 28.5742 57.665 27.5898C58.7725 26.6055 59.3262 25.1992 59.3262 23.3711C59.3262 21.4902 58.7725 19.9697 57.665 18.8096C56.5576 17.6494 55.0283 17.0518 53.0771 17.0166H45.8262V29.0664ZM72.7734 49V10.6094H86.2207C90.8789 10.6094 94.4121 11.5059 96.8203 13.2988C99.2285 15.0742 100.433 17.6846 100.433 21.1299C100.433 23.0107 99.9492 24.6719 98.9824 26.1133C98.0156 27.5371 96.6709 28.583 94.9482 29.251C96.917 29.7432 98.4639 30.7363 99.5889 32.2305C100.731 33.7246 101.303 35.5527 101.303 37.7148C101.303 41.4062 100.125 44.2012 97.7695 46.0996C95.4141 47.998 92.0566 48.9648 87.6973 49H72.7734ZM80.6836 32.2832V42.6455H87.46C89.3232 42.6455 90.7734 42.2061 91.8105 41.3271C92.8652 40.4307 93.3926 39.2002 93.3926 37.6357C93.3926 34.1201 91.5732 32.3359 87.9346 32.2832H80.6836ZM80.6836 26.6934H86.5371C90.5273 26.623 92.5225 25.0322 92.5225 21.9209C92.5225 20.1807 92.0127 18.9326 90.9932 18.1768C89.9912 17.4033 88.4004 17.0166 86.2207 17.0166H80.6836V26.6934ZM119.285 33.6016L115.172 38.0312V49H107.262V10.6094H115.172V28.0117L118.652 23.2393L128.435 10.6094H138.164L124.532 27.6689L138.56 49H129.146L119.285 33.6016ZM170.438 17.0166H158.678V49H150.768V17.0166H139.166V10.6094H170.438V17.0166Z" fill="#0C3A64"/>
</svg>
